# xmcd CD database file
#
# Track frame offsets:
#	150
#	14935
#	36257
#	59225
#	84782
#	104205
#	132930
#	151027
#	171827
#	191877
#
# Disc length: 3104 seconds
#
# Revision: 0
# Processed by: cddbd v1.5.1PL0 Copyright (c) Steve Scherf et al.
# Submitted via: CDex 1.60beta1
#
DISCID=8f0c1e0a
DTITLE=Various Artist - Body and Soul Collection: Whispering Winds
DYEAR=2001
DGENRE=New Age
TTITLE0=Radhika Miller - Origins
TTITLE1=Sandy Owen - Traveling
TTITLE2=Chris Glassfield - Sun Bird
TTITLE3=Eric Tingstad - Nancy Rumbel - Shenandoah
TTITLE4=Paul Winter - Hymn to the Sun
TTITLE5=Paul Graver - Pegasus
TTITLE6=Eugene Friesen - Remembering You
TTITLE7=Barbara Higbee - True Story
TTITLE8=Alex de Grassi - As You Drift Away
TTITLE9=Georgia Kelly - Seapeace
EXTD=YEAR: 2001
EXTT0=
EXTT1=
EXTT2=
EXTT3=
EXTT4=
EXTT5=
EXTT6=
EXTT7=
EXTT8=
EXTT9=
PLAYORDER=
